<svg preserveAspectRatio="none" overflow="visible" style="display: block;" width="44" height="44" viewBox="0 0 44 44" fill="none" xmlns="http://www.w3.org/2000/svg">
<g id="Group 35">
<circle id="Ellipse 8" cx="22" cy="22" r="22" fill="#DF3030"/>
<path id="reject" d="M17.0911 22.0536V24.406C17.0891 24.7209 16.9957 25.0284 16.8224 25.2913C16.649 25.5541 16.4031 25.761 16.1144 25.8868L14.1086 26.7479C13.8141 26.8723 13.4895 26.9068 13.1755 26.847C12.8616 26.7872 12.5723 26.6358 12.3443 26.4118L9.71883 23.7864C9.56632 23.6315 9.44674 23.4472 9.36729 23.2449C9.28784 23.0425 9.25018 22.8261 9.25655 22.6088C9.26293 22.3915 9.31322 22.1777 9.4044 21.9803C9.49558 21.7829 9.62575 21.606 9.78709 21.4603C20.4569 12.0402 30.9901 18.5198 34.6289 21.392C34.8066 21.5341 34.9522 21.7122 35.0561 21.9145C35.16 22.1169 35.2198 22.339 35.2317 22.5662C35.2436 22.7934 35.2073 23.0205 35.1251 23.2326C35.043 23.4447 34.9168 23.637 34.755 23.7969L32.2188 26.3331C31.9918 26.5587 31.7025 26.7113 31.3881 26.7712C31.0737 26.8311 30.7486 26.7955 30.4545 26.6691L28.4487 25.808C28.1581 25.6857 27.9101 25.4806 27.7354 25.2182C27.5608 24.9558 27.4673 24.6477 27.4668 24.3325V21.9801C27.4668 21.9801 22.2054 18.0735 17.0911 22.0536Z" fill="white"/>
</g>
</svg>
